<svg id="图层_1" data-name="图层 1" xmlns="http://www.w3.org/2000/svg" viewBox="0 0 50 50"><defs><style>.cls-1{fill:#fff;}</style></defs><title>未标题-1</title><path class="cls-1" d="M45,26.94v1.29a8.92,8.92,0,0,1-.25,1.14,4.58,4.58,0,0,1-5,2.71,4.63,4.63,0,0,1-3.91-4.18.45.45,0,0,0-.4-.49c-.78-.14-1.55-.3-2.32-.46a.4.4,0,0,0-.52.29,7.33,7.33,0,0,1-2.56,3.38.47.47,0,0,0-.16.7c.57,1.09,1.12,2.2,1.66,3.3a.48.48,0,0,0,.63.31,4.64,4.64,0,0,1,2.6,8.85,6.48,6.48,0,0,1-1.15.22H32.43a3.86,3.86,0,0,1-2.12-.72,4.62,4.62,0,0,1-.42-7.21.45.45,0,0,0,.09-.61c-.57-1.14-1.16-2.28-1.72-3.44-.13-.27-.31-.29-.56-.2a7.47,7.47,0,0,1-3.42.22,7.32,7.32,0,0,1-3.72-1.71c-.42-.37-.43-.38-.85,0C18.14,31.54,16.58,32.8,15,34a.53.53,0,0,0-.2.71,4.65,4.65,0,0,1-3.89,6.38,4.74,4.74,0,0,1-4.72-2.91A7.46,7.46,0,0,1,6,37.07v-1.3A4.41,4.41,0,0,1,9.55,32a4.52,4.52,0,0,1,3.53.69c.43.29.44.28.82,0l4.72-3.78c.37-.3.36-.3.16-.71a7.57,7.57,0,0,1,.48-8,.45.45,0,0,0-.07-.68c-1.91-1.89-3.81-3.8-5.71-5.7-.36-.35-.36-.35-.81-.12a4.64,4.64,0,0,1-6.3-2A4.72,4.72,0,0,1,6,10V8.81a3.83,3.83,0,0,1,.78-2.1A4.09,4.09,0,0,1,9.81,5H11a4,4,0,0,1,2.25.77,4.67,4.67,0,0,1,1.39,5.77c-.29.59-.29.59.18,1.07l5.52,5.52c.37.36.37.36.78.08A7.75,7.75,0,0,1,27,17c.46.08.46.08.64-.35.38-.94.75-1.89,1.14-2.83a.5.5,0,0,0-.18-.68A4.52,4.52,0,0,1,27,8.23a4.45,4.45,0,0,1,2.68-3c.33-.15.7-.09,1-.21h1.29a7.34,7.34,0,0,1,1.23.2,4.43,4.43,0,0,1,2.08,1.72,4.47,4.47,0,0,1,.25,4.73,4.46,4.46,0,0,1-4.14,2.49c-.85,0-.85,0-1.17.8s-.64,1.63-1,2.43a.43.43,0,0,0,.2.63,7.57,7.57,0,0,1,3.38,4.56,6.29,6.29,0,0,1,.21,2.07c0,.35.11.5.45.56.73.13,1.45.27,2.16.43a.51.51,0,0,0,.67-.3,4.64,4.64,0,0,1,8.39.4A5.58,5.58,0,0,1,45,26.94Z"/></svg>
